<svg xmlns="http://www.w3.org/2000/svg" viewBox="0 0 32 32" role="img" aria-label="WhatsApp">
  <path fill="#25D366" d="M16.04 3.2c-7.03 0-12.75 5.68-12.75 12.67 0 2.23.59 4.41 1.7 6.33L3.2 28.8l6.78-1.77a12.83 12.83 0 0 0 6.06 1.54c7.03 0 12.76-5.68 12.76-12.68S23.07 3.2 16.04 3.2Z"/>
  <path fill="#fff" d="M16.04 26.43a10.7 10.7 0 0 1-5.45-1.49l-.39-.23-4.02 1.05 1.08-3.9-.25-.4a10.46 10.46 0 0 1-1.6-5.59c0-5.81 4.77-10.54 10.63-10.54 2.84 0 5.51 1.1 7.52 3.09a10.45 10.45 0 0 1 3.12 7.47c0 5.81-4.77 10.54-10.64 10.54Zm5.83-7.89c-.32-.16-1.89-.92-2.18-1.03-.29-.1-.5-.15-.71.16-.21.31-.82 1.03-1 1.24-.18.21-.37.23-.69.08-.32-.16-1.35-.49-2.57-1.57-.95-.84-1.59-1.88-1.78-2.19-.18-.31-.02-.48.14-.63.14-.14.32-.36.48-.54.16-.18.21-.31.32-.52.11-.21.05-.39-.03-.54-.08-.16-.71-1.7-.98-2.33-.26-.61-.52-.53-.71-.54h-.61c-.21 0-.55.08-.84.39-.29.31-1.1 1.07-1.1 2.61s1.13 3.03 1.29 3.24c.16.21 2.23 3.38 5.4 4.74.75.32 1.34.51 1.8.66.76.24 1.45.21 2 .13.61-.09 1.89-.77 2.16-1.51.27-.75.27-1.39.19-1.52-.08-.13-.29-.21-.61-.36Z"/>
</svg>
